<svg width="1208" height="638" viewBox="0 0 1208 638" fill="none" xmlns="http://www.w3.org/2000/svg">
<g clip-path="url(#clip0_7_2)" filter="url(#filter0_d_7_2)">
<rect width="1200" height="630" transform="translate(4)" fill="url(#paint0_linear_7_2)"/>
<mask id="mask0_7_2" style="mask-type:luminance" maskUnits="userSpaceOnUse" x="4" y="0" width="1200" height="630">
<path d="M1204 0H4V630H1204V0Z" fill="white"/>
</mask>
<g mask="url(#mask0_7_2)">
<g style="mix-blend-mode:overlay">
<g style="mix-blend-mode:overlay">
<path d="M1506.92 731.082L546.535 555.294L-256.955 342.281L-298.526 346.685" stroke="url(#paint1_linear_7_2)" stroke-linecap="round" stroke-linejoin="round"/>
</g>
<g style="mix-blend-mode:overlay">
<path d="M1506.92 59.8512L846.394 53.5883L403.986 26.4041L214.941 25.7386L36.8547 22.9987L-130.865 18.6343L-298.526 -36.6736" stroke="url(#paint2_linear_7_2)" stroke-linecap="round" stroke-linejoin="round"/>
</g>
<g style="mix-blend-mode:overlay">
<path d="M1506.92 121.441L919.455 110.032L376.875 71.1437L158.719 75.7037L-130.865 18.6344L-289.367 13.1741L-298.526 12.8022" stroke="url(#paint3_linear_7_2)" stroke-linecap="round" stroke-linejoin="round"/>
</g>
<g style="mix-blend-mode:overlay">
<path d="M1506.92 537.093L996.375 477.049L69.208 309.716L-256.955 342.281L-298.526 325.529" stroke="url(#paint4_linear_7_2)" stroke-linecap="round" stroke-linejoin="round"/>
</g>
<g style="mix-blend-mode:overlay">
<path d="M1506.92 2.21419L1034.75 11.6474L814.688 19.6912L546.619 4.85623L445.286 -0.760654L438.848 -1.11293L185.12 -32.2115L34.9258 -64.6995L19.2816 -68.0853L-74.2406 -102.354L-82.2642 -105.29L-137.753 -141.77L-200.33 -157.877L-258.587 -173.789L-298.526 -185.18" stroke="url(#paint5_linear_7_2)" stroke-linecap="round" stroke-linejoin="round"/>
</g>
<g style="mix-blend-mode:overlay">
<path d="M1506.92 224.307L1076.53 208.455L367.195 145.318L106.923 158.862L-245.843 79.2073L-298.526 79.2463" stroke="url(#paint6_linear_7_2)" stroke-linecap="round" stroke-linejoin="round"/>
</g>
<g style="mix-blend-mode:overlay">
<path d="M1506.92 33.195L1097.15 39.634L846.394 53.5882L606.154 63.9413L376.875 71.1435L36.8547 22.9985L-162.036 -25.4595L-170.757 -27.5928L-286.373 -75.2875L-290.527 -76.9902L-298.526 -83.1355" stroke="url(#paint7_linear_7_2)" stroke-linecap="round" stroke-linejoin="round"/>
</g>
<g style="mix-blend-mode:overlay">
<path d="M1506.92 60.1445L1210.45 87.0353L606.154 63.9414L214.941 25.7387L-18.9533 -16.2806L-33 -18.7857L-170.757 -27.5927L-298.526 -37.0651" stroke="url(#paint8_linear_7_2)" stroke-linecap="round" stroke-linejoin="round"/>
</g>
<g style="mix-blend-mode:overlay">
<path d="M1506.92 84.6477L1210.45 87.0353L919.455 110.031L638.307 129.231L367.195 145.318L-48.3366 78.1696L-289.367 13.1739L-298.526 9.00525" stroke="url(#paint9_linear_7_2)" stroke-linecap="round" stroke-linejoin="round"/>
</g>
<g style="mix-blend-mode:overlay">
<path d="M1506.92 -10.0373L1264.23 -0.0364593L804.665 -0.447443L617.148 0.531112L438.848 -1.11284L271.459 -5.16408L114.094 -11.192L-33 -18.7855L-176.52 -62.4878L-183.857 -64.719L-268.102 -109.282L-298.526 -142.377" stroke="url(#paint10_linear_7_2)" stroke-linecap="round" stroke-linejoin="round"/>
</g>
<g style="mix-blend-mode:overlay">
<path d="M1506.92 16.0509L1356.1 21.8636L814.688 19.6911L603.775 24.5447L403.986 26.404L135.016 -8.47168L114.094 -11.1921L-57.283 -50.1582L-69.5189 -52.9371L-173.443 -92.9405L-179.301 -95.1912L-237.121 -135.84L-298.526 -149.305" stroke="url(#paint11_linear_7_2)" stroke-linecap="round" stroke-linejoin="round"/>
</g>
<g style="mix-blend-mode:overlay">
<path d="M1506.92 159.644L1424.77 169.607L638.307 129.231L158.719 75.7038L-48.3366 78.1698L-245.843 79.207L-298.526 59.5771" stroke="url(#paint12_linear_7_2)" stroke-linecap="round" stroke-linejoin="round"/>
</g>
<g style="mix-blend-mode:overlay">
<path d="M1506.92 170.037L1424.77 169.606L1076.53 208.454L734.099 244.171L399.406 277.442L-144.664 170.8L-298.526 122.244" stroke="url(#paint13_linear_7_2)" stroke-linecap="round" stroke-linejoin="round"/>
</g>
<g style="mix-blend-mode:overlay">
<path d="M1506.92 390.485L1436.38 402.443L399.406 277.444L69.208 309.716L-298.526 206.87" stroke="url(#paint14_linear_7_2)" stroke-opacity="0.9" stroke-linecap="round" stroke-linejoin="round"/>
</g>
<g style="mix-blend-mode:overlay">
<path d="M1506.92 407.257L1436.38 402.443L996.375 477.047L546.535 555.294L84.1423 640.761L-298.526 490.103" stroke="url(#paint15_linear_7_2)" stroke-linecap="round" stroke-linejoin="round"/>
</g>
<g style="mix-blend-mode:overlay">
<path d="M1506.92 -74.0545L1495.66 -83.6834L1447.43 -108.304L1399.7 -131.456L1352.85 -153.122L1306.27 -173.535L1260.34 -192.617L1214.46 -210.641L1168.99 -227.492L1123.33 -243.384L1077.89 -258.198L1031.96 -272.134L986.042 -285.071L939.406 -297.125L892.568 -308.183L844.77 -318.342L796.581 -327.48L747.274 -335.623L697.392 -342.668L646.272 -348.598L594.498 -353.295L541.458 -356.662L487.769 -358.618L432.931 -359.03L377.62 -357.816L321.504 -354.763L265.33 -349.792L209.06 -342.668L153.595 -333.313L99.2895 -321.472L47.3631 -307.067L-1.13168 -289.845L-44.3605 -269.766L-80.1339 -246.632L-105.446 -220.505L-116.109 -191.363L-106.819 -159.58L-69.8032 -125.585L-63.7798 -122.728L4.6077 -90.4159L17.2698 -86.9323L130.732 -55.6576L156.317 -51.5085L326.285 -23.9524L366.875 -20.547L617.148 0.531034L1034.75 11.6474L1264.23 -0.0365276L1499.25 -15.165L1506.92 -15.7521" stroke="url(#paint16_linear_7_2)" stroke-linecap="round" stroke-linejoin="round"/>
</g>
<g style="mix-blend-mode:overlay">
<path d="M1506.92 -103.02L1501.58 -107.345L1454.31 -130.38L1407.82 -152.026L1362.46 -172.184L1317.66 -191.188L1273.8 -208.899L1230.23 -225.633L1187.41 -241.269L1144.63 -256.045L1102.34 -269.883L1059.85 -282.936L1017.63 -295.149L974.907 -306.657L932.232 -317.363L888.792 -327.383L845.149 -336.601L800.49 -345.114L755.402 -352.787L709.069 -359.675L662.118 -365.683L613.728 -370.733L564.57 -374.783L513.886 -377.7L462.338 -379.442L409.299 -379.814L355.443 -378.795L300.274 -376.114L244.525 -371.75L187.96 -365.428L131.371 -357.072L74.8651 -346.387L19.4946 -333.293L-34.1006 -317.48L-84.4179 -298.848L-129.895 -277.123L-168.071 -252.248L-195.761 -224.028L-208.577 -192.538L-200.33 -157.877L-162.722 -120.536L-83.6606 -81.3543L-73.5067 -78.4383L53.1026 -41.9773L71.6105 -38.8655L271.459 -5.16399L302.784 -2.36534L603.775 24.5449L1097.15 39.6342L1356.1 21.8637L1506.92 9.41648" stroke="url(#paint17_linear_7_2)" stroke-opacity="0.9" stroke-linecap="round" stroke-linejoin="round"/>
</g>
<g style="mix-blend-mode:overlay">
<path d="M1506.92 301.358L1384.51 292.296L734.099 244.173L106.923 158.861L-144.664 170.8L-298.526 177.806" stroke="url(#paint18_linear_7_2)" stroke-opacity="0.9" stroke-linecap="round" stroke-linejoin="round"/>
</g>
</g>
<g style="mix-blend-mode:overlay">
<g style="mix-blend-mode:overlay">
<path d="M1506.92 731.082L546.535 555.294L-256.955 342.281L-298.526 346.685" stroke="url(#paint19_linear_7_2)" stroke-linecap="round" stroke-linejoin="round"/>
</g>
<g style="mix-blend-mode:overlay">
<path d="M1506.92 59.8512L846.394 53.5883L403.986 26.4041L214.941 25.7386L36.8547 22.9987L-130.865 18.6343L-298.526 -36.6736" stroke="url(#paint20_linear_7_2)" stroke-linecap="round" stroke-linejoin="round"/>
</g>
<g style="mix-blend-mode:overlay">
<path d="M1506.92 121.441L919.455 110.032L376.875 71.1437L158.719 75.7037L-130.865 18.6344L-289.367 13.1741L-298.526 12.8022" stroke="url(#paint21_linear_7_2)" stroke-linecap="round" stroke-linejoin="round"/>
</g>
<g style="mix-blend-mode:overlay">
<path d="M1506.92 537.093L996.375 477.049L69.208 309.716L-256.955 342.281L-298.526 325.529" stroke="url(#paint22_linear_7_2)" stroke-linecap="round" stroke-linejoin="round"/>
</g>
<g style="mix-blend-mode:overlay">
<path d="M1506.92 2.21419L1034.75 11.6474L814.688 19.6912L546.619 4.85623L445.286 -0.760654L438.848 -1.11293L185.12 -32.2115L34.9258 -64.6995L19.2816 -68.0853L-74.2406 -102.354L-82.2642 -105.29L-137.753 -141.77L-200.33 -157.877L-258.587 -173.789L-298.526 -185.18" stroke="url(#paint23_linear_7_2)" stroke-linecap="round" stroke-linejoin="round"/>
</g>
<g style="mix-blend-mode:overlay">
<path d="M1506.92 224.307L1076.53 208.455L367.195 145.318L106.923 158.862L-245.843 79.2073L-298.526 79.2463" stroke="url(#paint24_linear_7_2)" stroke-linecap="round" stroke-linejoin="round"/>
</g>
<g style="mix-blend-mode:overlay">
<path d="M1506.92 33.195L1097.15 39.634L846.394 53.5882L606.154 63.9413L376.875 71.1435L36.8547 22.9985L-162.036 -25.4595L-170.757 -27.5928L-286.373 -75.2875L-290.527 -76.9902L-298.526 -83.1355" stroke="url(#paint25_linear_7_2)" stroke-linecap="round" stroke-linejoin="round"/>
</g>
<g style="mix-blend-mode:overlay">
<path d="M1506.92 60.1445L1210.45 87.0353L606.154 63.9414L214.941 25.7387L-18.9533 -16.2806L-33 -18.7857L-170.757 -27.5927L-298.526 -37.0651" stroke="url(#paint26_linear_7_2)" stroke-linecap="round" stroke-linejoin="round"/>
</g>
<g style="mix-blend-mode:overlay">
<path d="M1506.92 84.6477L1210.45 87.0353L919.455 110.031L638.307 129.231L367.195 145.318L-48.3366 78.1696L-289.367 13.1739L-298.526 9.00525" stroke="url(#paint27_linear_7_2)" stroke-linecap="round" stroke-linejoin="round"/>
</g>
<g style="mix-blend-mode:overlay">
<path d="M1506.92 -10.0373L1264.23 -0.0364593L804.665 -0.447443L617.148 0.531112L438.848 -1.11284L271.459 -5.16408L114.094 -11.192L-33 -18.7855L-176.52 -62.4878L-183.857 -64.719L-268.102 -109.282L-298.526 -142.377" stroke="url(#paint28_linear_7_2)" stroke-linecap="round" stroke-linejoin="round"/>
</g>
<g style="mix-blend-mode:overlay">
<path d="M1506.92 16.0509L1356.1 21.8636L814.688 19.6911L603.775 24.5447L403.986 26.404L135.016 -8.47168L114.094 -11.1921L-57.283 -50.1582L-69.5189 -52.9371L-173.443 -92.9405L-179.301 -95.1912L-237.121 -135.84L-298.526 -149.305" stroke="url(#paint29_linear_7_2)" stroke-linecap="round" stroke-linejoin="round"/>
</g>
<g style="mix-blend-mode:overlay">
<path d="M1506.92 159.644L1424.77 169.607L638.307 129.231L158.719 75.7038L-48.3366 78.1698L-245.843 79.207L-298.526 59.5771" stroke="url(#paint30_linear_7_2)" stroke-linecap="round" stroke-linejoin="round"/>
</g>
<g style="mix-blend-mode:overlay">
<path d="M1506.92 170.037L1424.77 169.606L1076.53 208.454L734.099 244.171L399.406 277.442L-144.664 170.8L-298.526 122.244" stroke="url(#paint31_linear_7_2)" stroke-linecap="round" stroke-linejoin="round"/>
</g>
<g style="mix-blend-mode:overlay">
<path d="M1506.92 390.485L1436.38 402.443L399.406 277.444L69.208 309.716L-298.526 206.87" stroke="url(#paint32_linear_7_2)" stroke-opacity="0.9" stroke-linecap="round" stroke-linejoin="round"/>
</g>
<g style="mix-blend-mode:overlay">
<path d="M1506.92 407.257L1436.38 402.443L996.375 477.047L546.535 555.294L84.1423 640.761L-298.526 490.103" stroke="url(#paint33_linear_7_2)" stroke-linecap="round" stroke-linejoin="round"/>
</g>
<g style="mix-blend-mode:overlay">
<path d="M1506.92 -74.0545L1495.66 -83.6834L1447.43 -108.304L1399.7 -131.456L1352.85 -153.122L1306.27 -173.535L1260.34 -192.617L1214.46 -210.641L1168.99 -227.492L1123.33 -243.384L1077.89 -258.198L1031.96 -272.134L986.042 -285.071L939.406 -297.125L892.568 -308.183L844.77 -318.342L796.581 -327.48L747.274 -335.623L697.392 -342.668L646.272 -348.598L594.498 -353.295L541.458 -356.662L487.769 -358.618L432.931 -359.03L377.62 -357.816L321.504 -354.763L265.33 -349.792L209.06 -342.668L153.595 -333.313L99.2895 -321.472L47.3631 -307.067L-1.13168 -289.845L-44.3605 -269.766L-80.1339 -246.632L-105.446 -220.505L-116.109 -191.363L-106.819 -159.58L-69.8032 -125.585L-63.7798 -122.728L4.6077 -90.4159L17.2698 -86.9323L130.732 -55.6576L156.317 -51.5085L326.285 -23.9524L366.875 -20.547L617.148 0.531034L1034.75 11.6474L1264.23 -0.0365276L1499.25 -15.165L1506.92 -15.7521" stroke="url(#paint34_linear_7_2)" stroke-linecap="round" stroke-linejoin="round"/>
</g>
<g style="mix-blend-mode:overlay">
<path d="M1506.92 -103.02L1501.58 -107.345L1454.31 -130.38L1407.82 -152.026L1362.46 -172.184L1317.66 -191.188L1273.8 -208.899L1230.23 -225.633L1187.41 -241.269L1144.63 -256.045L1102.34 -269.883L1059.85 -282.936L1017.63 -295.149L974.907 -306.657L932.232 -317.363L888.792 -327.383L845.149 -336.601L800.49 -345.114L755.402 -352.787L709.069 -359.675L662.118 -365.683L613.728 -370.733L564.57 -374.783L513.886 -377.7L462.338 -379.442L409.299 -379.814L355.443 -378.795L300.274 -376.114L244.525 -371.75L187.96 -365.428L131.371 -357.072L74.8651 -346.387L19.4946 -333.293L-34.1006 -317.48L-84.4179 -298.848L-129.895 -277.123L-168.071 -252.248L-195.761 -224.028L-208.577 -192.538L-200.33 -157.877L-162.722 -120.536L-83.6606 -81.3543L-73.5067 -78.4383L53.1026 -41.9773L71.6105 -38.8655L271.459 -5.16399L302.784 -2.36534L603.775 24.5449L1097.15 39.6342L1356.1 21.8637L1506.92 9.41648" stroke="url(#paint35_linear_7_2)" stroke-opacity="0.9" stroke-linecap="round" stroke-linejoin="round"/>
</g>
<g style="mix-blend-mode:overlay">
<path d="M1506.92 301.358L1384.51 292.296L734.099 244.173L106.923 158.861L-144.664 170.8L-298.526 177.806" stroke="url(#paint36_linear_7_2)" stroke-opacity="0.9" stroke-linecap="round" stroke-linejoin="round"/>
</g>
</g>
</g>
</g>
<defs>
<filter id="filter0_d_7_2" x="0" y="0" width="1208" height="638" filterUnits="userSpaceOnUse" color-interpolation-filters="sRGB">
<feFlood flood-opacity="0" result="BackgroundImageFix"/>
<feColorMatrix in="SourceAlpha" type="matrix" values="0 0 0 0 0 0 0 0 0 0 0 0 0 0 0 0 0 0 127 0" result="hardAlpha"/>
<feOffset dy="4"/>
<feGaussianBlur stdDeviation="2"/>
<feComposite in2="hardAlpha" operator="out"/>
<feColorMatrix type="matrix" values="0 0 0 0 0 0 0 0 0 0 0 0 0 0 0 0 0 0 0.25 0"/>
<feBlend mode="normal" in2="BackgroundImageFix" result="effect1_dropShadow_7_2"/>
<feBlend mode="normal" in="SourceGraphic" in2="effect1_dropShadow_7_2" result="shape"/>
</filter>
<linearGradient id="paint0_linear_7_2" x1="600" y1="0" x2="600" y2="677" gradientUnits="userSpaceOnUse">
<stop stop-color="#0F172A"/>
<stop offset="0.484375" stop-color="#300171" stop-opacity="0.880208"/>
<stop offset="1" stop-color="#300171" stop-opacity="0"/>
</linearGradient>
<linearGradient id="paint1_linear_7_2" x1="604.196" y1="342.281" x2="604.196" y2="731.082" gradientUnits="userSpaceOnUse">
<stop stop-color="#A98AF4"/>
<stop offset="1" stop-color="#CC8CF2"/>
</linearGradient>
<linearGradient id="paint2_linear_7_2" x1="604.196" y1="-36.6736" x2="604.196" y2="59.8512" gradientUnits="userSpaceOnUse">
<stop stop-color="#A98AF4"/>
<stop offset="1" stop-color="#CC8CF2"/>
</linearGradient>
<linearGradient id="paint3_linear_7_2" x1="604.196" y1="12.8022" x2="604.196" y2="121.441" gradientUnits="userSpaceOnUse">
<stop stop-color="#A98AF4"/>
<stop offset="1" stop-color="#CC8CF2"/>
</linearGradient>
<linearGradient id="paint4_linear_7_2" x1="604.196" y1="309.716" x2="604.196" y2="537.093" gradientUnits="userSpaceOnUse">
<stop stop-color="#A98AF4"/>
<stop offset="1" stop-color="#CC8CF2"/>
</linearGradient>
<linearGradient id="paint5_linear_7_2" x1="604.196" y1="-185.18" x2="604.196" y2="19.6912" gradientUnits="userSpaceOnUse">
<stop stop-color="#A98AF4"/>
<stop offset="1" stop-color="#CC8CF2"/>
</linearGradient>
<linearGradient id="paint6_linear_7_2" x1="604.196" y1="79.2073" x2="604.196" y2="224.307" gradientUnits="userSpaceOnUse">
<stop stop-color="#A98AF4"/>
<stop offset="1" stop-color="#CC8CF2"/>
</linearGradient>
<linearGradient id="paint7_linear_7_2" x1="604.196" y1="-83.1355" x2="604.196" y2="71.1435" gradientUnits="userSpaceOnUse">
<stop stop-color="#A98AF4"/>
<stop offset="1" stop-color="#CC8CF2"/>
</linearGradient>
<linearGradient id="paint8_linear_7_2" x1="604.196" y1="-37.0651" x2="604.196" y2="87.0353" gradientUnits="userSpaceOnUse">
<stop stop-color="#A98AF4"/>
<stop offset="1" stop-color="#CC8CF2"/>
</linearGradient>
<linearGradient id="paint9_linear_7_2" x1="604.196" y1="9.00525" x2="604.196" y2="145.318" gradientUnits="userSpaceOnUse">
<stop stop-color="#A98AF4"/>
<stop offset="1" stop-color="#CC8CF2"/>
</linearGradient>
<linearGradient id="paint10_linear_7_2" x1="604.196" y1="-142.377" x2="604.196" y2="0.531113" gradientUnits="userSpaceOnUse">
<stop stop-color="#A98AF4"/>
<stop offset="1" stop-color="#CC8CF2"/>
</linearGradient>
<linearGradient id="paint11_linear_7_2" x1="604.196" y1="-149.305" x2="604.196" y2="26.404" gradientUnits="userSpaceOnUse">
<stop stop-color="#A98AF4"/>
<stop offset="1" stop-color="#CC8CF2"/>
</linearGradient>
<linearGradient id="paint12_linear_7_2" x1="604.196" y1="59.5771" x2="604.196" y2="169.607" gradientUnits="userSpaceOnUse">
<stop stop-color="#A98AF4"/>
<stop offset="1" stop-color="#CC8CF2"/>
</linearGradient>
<linearGradient id="paint13_linear_7_2" x1="604.196" y1="122.244" x2="604.196" y2="277.442" gradientUnits="userSpaceOnUse">
<stop stop-color="#A98AF4"/>
<stop offset="1" stop-color="#CC8CF2"/>
</linearGradient>
<linearGradient id="paint14_linear_7_2" x1="604.196" y1="206.87" x2="604.196" y2="402.443" gradientUnits="userSpaceOnUse">
<stop stop-color="#A98AF4"/>
<stop offset="1" stop-color="#CC8CF2"/>
</linearGradient>
<linearGradient id="paint15_linear_7_2" x1="604.196" y1="402.443" x2="604.196" y2="640.761" gradientUnits="userSpaceOnUse">
<stop stop-color="#A98AF4"/>
<stop offset="1" stop-color="#CC8CF2"/>
</linearGradient>
<linearGradient id="paint16_linear_7_2" x1="695.402" y1="-359.03" x2="695.402" y2="11.6475" gradientUnits="userSpaceOnUse">
<stop stop-color="#A98AF4"/>
<stop offset="1" stop-color="#CC8CF2"/>
</linearGradient>
<linearGradient id="paint17_linear_7_2" x1="649.171" y1="-379.814" x2="649.171" y2="39.6342" gradientUnits="userSpaceOnUse">
<stop stop-color="#A98AF4"/>
<stop offset="1" stop-color="#CC8CF2"/>
</linearGradient>
<linearGradient id="paint18_linear_7_2" x1="604.196" y1="158.861" x2="604.196" y2="301.358" gradientUnits="userSpaceOnUse">
<stop stop-color="#8F6CE2"/>
<stop offset="0.359375" stop-color="#B48BF3"/>
<stop offset="1" stop-color="#CC8CF2"/>
</linearGradient>
<linearGradient id="paint19_linear_7_2" x1="604.196" y1="342.281" x2="604.196" y2="731.082" gradientUnits="userSpaceOnUse">
<stop stop-color="#A98AF4"/>
<stop offset="1" stop-color="#CC8CF2"/>
</linearGradient>
<linearGradient id="paint20_linear_7_2" x1="604.196" y1="-36.6736" x2="604.196" y2="59.8512" gradientUnits="userSpaceOnUse">
<stop stop-color="#A98AF4"/>
<stop offset="1" stop-color="#CC8CF2"/>
</linearGradient>
<linearGradient id="paint21_linear_7_2" x1="604.196" y1="12.8022" x2="604.196" y2="121.441" gradientUnits="userSpaceOnUse">
<stop stop-color="#A98AF4"/>
<stop offset="1" stop-color="#CC8CF2"/>
</linearGradient>
<linearGradient id="paint22_linear_7_2" x1="604.196" y1="309.716" x2="604.196" y2="537.093" gradientUnits="userSpaceOnUse">
<stop stop-color="#A98AF4"/>
<stop offset="1" stop-color="#CC8CF2"/>
</linearGradient>
<linearGradient id="paint23_linear_7_2" x1="604.196" y1="-185.18" x2="604.196" y2="19.6912" gradientUnits="userSpaceOnUse">
<stop stop-color="#A98AF4"/>
<stop offset="1" stop-color="#CC8CF2"/>
</linearGradient>
<linearGradient id="paint24_linear_7_2" x1="604.196" y1="79.2073" x2="604.196" y2="224.307" gradientUnits="userSpaceOnUse">
<stop stop-color="#A98AF4"/>
<stop offset="1" stop-color="#CC8CF2"/>
</linearGradient>
<linearGradient id="paint25_linear_7_2" x1="604.196" y1="-83.1355" x2="604.196" y2="71.1435" gradientUnits="userSpaceOnUse">
<stop stop-color="#A98AF4"/>
<stop offset="1" stop-color="#CC8CF2"/>
</linearGradient>
<linearGradient id="paint26_linear_7_2" x1="604.196" y1="-37.0651" x2="604.196" y2="87.0353" gradientUnits="userSpaceOnUse">
<stop stop-color="#A98AF4"/>
<stop offset="1" stop-color="#CC8CF2"/>
</linearGradient>
<linearGradient id="paint27_linear_7_2" x1="604.196" y1="9.00525" x2="604.196" y2="145.318" gradientUnits="userSpaceOnUse">
<stop stop-color="#A98AF4"/>
<stop offset="1" stop-color="#CC8CF2"/>
</linearGradient>
<linearGradient id="paint28_linear_7_2" x1="604.196" y1="-142.377" x2="604.196" y2="0.531113" gradientUnits="userSpaceOnUse">
<stop stop-color="#A98AF4"/>
<stop offset="1" stop-color="#CC8CF2"/>
</linearGradient>
<linearGradient id="paint29_linear_7_2" x1="604.196" y1="-149.305" x2="604.196" y2="26.404" gradientUnits="userSpaceOnUse">
<stop stop-color="#A98AF4"/>
<stop offset="1" stop-color="#CC8CF2"/>
</linearGradient>
<linearGradient id="paint30_linear_7_2" x1="604.196" y1="59.5771" x2="604.196" y2="169.607" gradientUnits="userSpaceOnUse">
<stop stop-color="#A98AF4"/>
<stop offset="1" stop-color="#CC8CF2"/>
</linearGradient>
<linearGradient id="paint31_linear_7_2" x1="604.196" y1="122.244" x2="604.196" y2="277.442" gradientUnits="userSpaceOnUse">
<stop stop-color="#A98AF4"/>
<stop offset="1" stop-color="#CC8CF2"/>
</linearGradient>
<linearGradient id="paint32_linear_7_2" x1="604.196" y1="206.87" x2="604.196" y2="402.443" gradientUnits="userSpaceOnUse">
<stop stop-color="#A98AF4"/>
<stop offset="1" stop-color="#CC8CF2"/>
</linearGradient>
<linearGradient id="paint33_linear_7_2" x1="604.196" y1="402.443" x2="604.196" y2="640.761" gradientUnits="userSpaceOnUse">
<stop stop-color="#A98AF4"/>
<stop offset="1" stop-color="#CC8CF2"/>
</linearGradient>
<linearGradient id="paint34_linear_7_2" x1="695.402" y1="-359.03" x2="695.402" y2="11.6475" gradientUnits="userSpaceOnUse">
<stop stop-color="#A98AF4"/>
<stop offset="1" stop-color="#CC8CF2"/>
</linearGradient>
<linearGradient id="paint35_linear_7_2" x1="649.171" y1="-379.814" x2="649.171" y2="39.6342" gradientUnits="userSpaceOnUse">
<stop stop-color="#A98AF4"/>
<stop offset="1" stop-color="#CC8CF2"/>
</linearGradient>
<linearGradient id="paint36_linear_7_2" x1="604.196" y1="158.861" x2="604.196" y2="301.358" gradientUnits="userSpaceOnUse">
<stop stop-color="#8F6CE2"/>
<stop offset="0.359375" stop-color="#B48BF3"/>
<stop offset="1" stop-color="#CC8CF2"/>
</linearGradient>
<clipPath id="clip0_7_2">
<rect width="1200" height="630" fill="white" transform="translate(4)"/>
</clipPath>
</defs>
</svg>
